<svg xmlns="http://www.w3.org/2000/svg" xmlns:xlink="http://www.w3.org/1999/xlink" width="500" zoomAndPan="magnify" viewBox="0 0 375 374.999991" height="500" preserveAspectRatio="xMidYMid meet" version="1.0"><rect x="-37.5" width="450" fill="#ffffff00" y="-37.499999" height="449.999989" fillOpacity="1"/><rect x="-37.5" width="450" fill="#ffffff00" y="-37.499999" height="449.999989" fillOpacity="1"/><path fill="#d7d7d7" d="M 42.507812 196.207031 L 174.03125 196.207031 L 174.03125 342.890625 L 42.507812 342.890625 Z M 42.507812 196.207031 " fillOpacity="1" fillRule="nonzero"/><path fill="#d7d7d7" d="M 80.648438 170.300781 C 89.707031 176.359375 100.445312 179.433594 112.566406 179.433594 C 123.480469 179.433594 133.359375 177.335938 141.933594 173.199219 C 143.628906 172.371094 145.277344 171.492188 146.863281 170.574219 L 146.863281 179.433594 L 164.238281 179.433594 L 164.238281 122.222656 L 146.863281 122.222656 L 146.863281 137.445312 C 146.863281 140.21875 146.371094 142.726562 145.34375 145.121094 C 141.332031 154.75 130.195312 158.972656 126.765625 160.0625 C 126.59375 160.105469 126.441406 160.152344 126.304688 160.195312 C 125.992188 160.28125 125.800781 160.339844 125.792969 160.34375 C 121.925781 161.386719 117.605469 161.917969 112.949219 161.917969 C 104.914062 161.917969 97.777344 159.648438 91.730469 155.171875 C 85.597656 150.628906 80.777344 144.304688 77.40625 136.371094 C 73.828125 128.003906 72.226562 114.457031 72.226562 104.742188 C 72.226562 93.792969 74.164062 82.726562 77.410156 75.136719 C 80.777344 67.207031 85.597656 60.882812 91.730469 56.339844 C 97.777344 51.863281 104.914062 49.59375 112.949219 49.59375 C 117.609375 49.59375 121.9375 50.125 125.734375 51.152344 C 125.734375 51.152344 125.9375 51.214844 126.304688 51.316406 C 126.441406 51.359375 126.59375 51.40625 126.765625 51.449219 C 130.195312 52.539062 141.332031 56.761719 145.351562 66.40625 C 146.371094 68.785156 146.863281 71.292969 146.863281 74.066406 L 146.863281 89.289062 L 164.238281 89.289062 L 164.238281 32.078125 L 146.863281 32.078125 L 146.863281 40.9375 C 145.277344 40.019531 143.625 39.136719 141.925781 38.3125 C 133.355469 34.175781 123.480469 32.078125 112.566406 32.078125 C 100.449219 32.078125 89.710938 35.152344 80.648438 41.214844 C 71.640625 47.253906 64.578125 55.699219 59.652344 66.320312 C 54.980469 76.421875 52.300781 90.425781 52.300781 104.742188 C 52.300781 116.613281 54.230469 133.472656 59.652344 145.191406 C 64.578125 155.8125 71.640625 164.257812 80.648438 170.300781 Z M 80.648438 170.300781 " fillOpacity="1" fillRule="nonzero"/><path fill="#ff8025" d="M 200.96875 32.726562 L 332.488281 32.726562 L 332.488281 179.414062 L 200.96875 179.414062 Z M 200.96875 32.726562 " fillOpacity="1" fillRule="nonzero"/><path fill="#ff8025" d="M 308.820312 274.855469 C 300.902344 268.007812 288.054688 262.535156 270.640625 258.59375 C 261.492188 256.472656 254.410156 254.195312 249.605469 251.832031 C 245.136719 249.605469 242.121094 247.144531 240.644531 244.5 C 239.128906 241.820312 238.359375 238.578125 238.359375 234.871094 C 238.359375 229.21875 240.8125 224.367188 245.851562 220.042969 C 249.625 216.824219 254.699219 214.765625 260.9375 213.925781 L 261.070312 213.910156 C 262.28125 213.785156 263.605469 213.722656 265 213.722656 C 269.660156 213.722656 273.984375 214.253906 277.796875 215.285156 L 278.34375 215.441406 C 278.484375 215.484375 278.640625 215.53125 278.8125 215.574219 C 282.242188 216.667969 293.382812 220.886719 297.398438 230.523438 C 297.855469 231.609375 298.207031 232.699219 298.445312 233.769531 C 298.753906 235.160156 298.914062 236.648438 298.914062 238.195312 L 298.914062 239.246094 L 299.417969 245.066406 L 316.285156 245.066406 L 316.285156 196.207031 L 298.914062 196.207031 L 298.914062 205.066406 C 297.324219 204.144531 295.671875 203.265625 293.972656 202.4375 C 285.976562 198.589844 276.855469 196.496094 266.769531 196.226562 C 257.414062 196.351562 249.082031 198.050781 242.011719 201.28125 C 234.542969 204.675781 228.667969 209.390625 224.554688 215.292969 C 220.410156 221.226562 218.308594 227.984375 218.308594 235.378906 C 218.308594 241.160156 219.375 246.371094 221.46875 250.863281 C 223.441406 255.117188 226.351562 258.816406 230.113281 261.863281 C 237.667969 267.96875 249.929688 272.894531 266.550781 276.496094 C 279.738281 279.433594 288.960938 283.257812 293.960938 287.855469 C 297.234375 290.886719 299.339844 294.074219 300.402344 297.628906 C 300.945312 299.351562 301.222656 301.207031 301.222656 303.132812 C 301.222656 309.285156 298.566406 314.472656 293.105469 318.996094 C 287.585938 323.578125 279.296875 325.902344 268.464844 325.902344 C 267.082031 325.902344 265.703125 325.867188 264.359375 325.792969 L 264.050781 325.761719 C 260.792969 325.46875 257.675781 324.640625 254.652344 323.832031 L 254.144531 323.6875 C 253.996094 323.640625 253.828125 323.59375 253.636719 323.542969 C 250.207031 322.449219 239.066406 318.230469 235.058594 308.613281 C 234.621094 307.546875 234.300781 306.574219 234.074219 305.644531 L 233.988281 305.265625 C 233.6875 303.898438 233.535156 302.4375 233.535156 300.925781 L 233.535156 294.050781 L 216.164062 294.050781 L 216.164062 342.914062 L 233.535156 342.914062 L 233.535156 334.050781 C 235.128906 334.976562 236.78125 335.855469 238.480469 336.679688 C 245.457031 340.03125 253.289062 342.058594 261.738281 342.703125 C 261.894531 342.714844 262.046875 342.722656 262.199219 342.730469 L 262.5 342.746094 C 263.675781 342.820312 264.675781 342.851562 265.597656 342.851562 C 266.019531 342.875 266.453125 342.898438 266.773438 342.890625 C 267.328125 342.914062 267.886719 342.914062 268.464844 342.914062 C 285.230469 342.914062 298.3125 339.117188 307.34375 331.625 C 316.503906 324.035156 321.152344 314.191406 321.152344 302.363281 C 321.152344 291.148438 317 281.894531 308.820312 274.855469 Z M 308.820312 274.855469 " fillOpacity="1" fillRule="nonzero"/></svg>