<svg xmlns="http://www.w3.org/2000/svg" id="svg1" version="1.1" viewBox="0 0 132.36145599999998 121.64526" style="max-height: 500px" width="132.36145599999998" height="121.64526">
  
  <defs id="defs1"/>
  <g transform="translate(-38.792573,-23.815213)" id="layer1">
    <g transform="matrix(0.28663238,0,0,0.28663238,32.451998,12.555321)" id="g4">
      <path id="path2" d="m 153.01285,39.602509 c 39.65124,-0.1335 78.80556,-0.49963 117.95505,-0.21114 9.5639,0.07048 17.65774,5.57251 23.24255,13.043259 7.6492,10.232303 14.33102,21.206615 21.14447,32.040882 13.45871,21.40108 26.60629,42.99865 40.1702,64.33206 2.59503,4.08148 2.234,6.52928 -1.11432,9.7934 -27.41828,26.72842 -54.64743,53.65083 -82.0824,80.36194 -3.16739,3.0838 -3.34015,5.71978 -1.17017,9.14262 15.40671,24.30191 30.78488,48.62192 46.17902,72.93179 8.01068,12.65024 16.11365,25.24286 24.0267,37.95383 5.49072,8.81988 6.27042,18.06827 1.66922,27.56213 -5.13135,10.58789 -13.96338,15.33664 -25.3526,15.32242 -41.9848,-0.0524 -83.96959,-0.24158 -125.95389,-0.46979 -10.98912,-0.0597 -21.97792,-0.3992 -32.96292,-0.73855 -1.48356,-0.0458 -2.94381,-0.84558 -4.41485,-1.29627 0.70648,-1.39053 1.09567,-3.12146 2.16728,-4.12021 14.73389,-13.73242 29.60748,-27.31509 44.32567,-41.06414 2.74182,-2.56125 5.61391,-3.67984 9.35135,-3.67453 19.3256,0.0275 38.65149,-0.1279 57.97726,-0.21726 1.81311,-0.008 3.62628,-10e-4 6.55002,-10e-4 -1.15396,-2.27911 -1.80005,-3.85702 -2.69498,-5.27826 -18.52566,-29.42013 -36.8959,-58.9407 -55.71924,-88.16943 -7.42042,-11.52242 -7.08702,-28.23872 4.1946,-38.62976 13.95044,-12.84923 27.38873,-26.25601 40.9969,-39.47479 9.65708,-9.38079 19.10999,-18.97551 28.90799,-28.20517 3.14459,-2.96218 3.43027,-5.17206 1.03702,-8.76854 -10.87467,-16.34199 -21.4231,-32.90126 -32.32877,-49.222078 -0.9046,-1.353783 -3.5924,-2.112381 -5.46357,-2.134331 -27.31884,-0.32048 -54.63959,-0.521301 -81.96025,-0.586365 -3.20749,-0.0076 -5.31159,-0.999199 -7.0365,-3.632851 -8.93369,-13.64038 -18.00577,-27.19025 -26.91599,-40.845821 -2.64497,-4.053604 -1.66478,-5.620724 3.27983,-5.71735 3.83086,-0.07486 7.66431,-0.01704 11.99532,-0.02657 z" stroke="none" opacity="1" fill="#3a3b3b"/>
      <path id="path3" d="m 208.64053,295.61267 c -16.91975,15.56693 -33.5877,30.88107 -50.24548,46.20624 -32.08757,29.52063 -64.17421,59.04227 -96.250816,88.5748 -10.162415,9.35638 -20.291516,18.74896 -30.436724,28.12402 -1.100084,1.0166 -2.08955,2.21426 -3.339605,2.99127 -1.471691,0.91474 -3.171641,1.46228 -4.772635,2.16904 -0.483818,-1.63214 -1.379888,-3.26215 -1.388437,-4.89679 -0.09842,-18.82236 -0.148977,-37.64633 0.05502,-56.46698 0.02377,-2.19278 1.067723,-4.99002 2.626576,-6.45795 21.806709,-20.53488 43.789608,-40.8826 65.720829,-61.28531 17.538612,-16.31625 35.052062,-32.65954 52.601562,-48.96408 13.16762,-12.23342 26.36101,-24.43924 39.57334,-36.62434 3.5607,-3.28389 4.89444,-2.97299 7.68074,1.36075 7.28777,11.33516 14.42248,22.77528 21.98855,33.92219 3.86847,5.69931 -0.50835,8.0116 -3.81291,11.34714 z" stroke="none" opacity="1" fill="#28cac9"/>
      <path id="path4" d="m 471.90631,143.01865 c 2.78687,1e-5 5.08994,1e-5 8.60046,1e-5 -0.89856,2.61911 -1.19122,4.69475 -2.22143,6.29578 -23.6658,36.77777 -47.65302,73.35138 -71.02921,110.31157 -9.89975,15.65249 -32.44345,15.02194 -42.21899,0.90338 -11.0679,-15.98509 -21.32462,-32.5361 -31.69257,-48.99318 -0.79596,-1.26346 -0.40527,-4.45126 0.66175,-5.52944 10.53244,-10.64248 21.31466,-21.03817 32.05163,-31.47753 2.15381,-2.09411 3.98007,-1.89971 5.59271,0.82669 3.38324,5.71978 6.89649,11.36273 10.36216,17.03367 1.17364,1.92041 2.36477,3.83014 3.86969,6.26547 7.9635,-12.56718 15.48727,-24.46339 23.03668,-36.3433 3.21085,-5.05263 6.59436,-9.99985 9.66937,-15.13277 1.75498,-2.92943 4.02463,-3.92024 7.38397,-3.91153 15.14966,0.0393 30.29993,-0.14506 45.93378,-0.24882 z" stroke="none" opacity="1" fill="#ef723a"/>
    </g>
  </g>
</svg>