<svg xmlns="http://www.w3.org/2000/svg" version="1.1" xmlns:xlink="http://www.w3.org/1999/xlink" xmlns:svgjs="http://svgjs.dev/svgjs" width="500" height="500"><svg xmlns="http://www.w3.org/2000/svg" xmlns:xlink="http://www.w3.org/1999/xlink" width="500" zoomAndPan="magnify" viewBox="0 0 375 374.999991" height="500" preserveAspectRatio="xMidYMid meet" version="1.0"><path fill="#403d39" d="M 216 202.28125 L 216.0625 202.183594 L 124.617188 202.183594 C 123.3125 202.183594 122.085938 202.882812 121.433594 204.019531 L 103.367188 235.3125 L 97.738281 245.0625 C 96.71875 245.65625 95.535156 246.339844 94.515625 246.933594 L 69.492188 246.933594 C 66.675781 246.933594 64.902344 243.875 66.332031 241.429688 L 69.859375 235.3125 L 88.96875 202.183594 L 131.246094 128.96875 C 132.671875 126.519531 136.199219 126.519531 137.609375 128.96875 L 151.191406 152.492188 L 170.320312 185.617188 L 170.320312 185.621094 L 175.050781 193.8125 C 175.703125 194.945312 176.90625 195.644531 178.230469 195.644531 L 214.347656 195.644531 L 201.074219 172.621094 L 200.582031 171.792969 L 189.449219 152.492188 L 178.761719 133.96875 L 175.355469 128.082031 L 170.320312 119.367188 L 170.320312 119.359375 L 157.289062 96.789062 C 156.636719 95.65625 155.410156 94.953125 154.105469 94.953125 L 114.746094 94.953125 C 113.441406 94.953125 112.21875 95.652344 111.566406 96.789062 L 50.710938 202.183594 L 31.601562 235.3125 L 24.890625 246.933594 L 8.941406 274.558594 C 7.535156 277.003906 9.289062 280.0625 12.125 280.0625 L 113.664062 280.0625 C 114.992188 280.0625 116.195312 279.363281 116.847656 278.230469 L 134.914062 246.933594 L 140.566406 237.148438 C 141.21875 236.011719 142.441406 235.3125 143.746094 235.3125 L 235.152344 235.3125 L 235.070312 235.269531 Z M 216 202.28125 " fill-opacity="1" fill-rule="nonzero"></path><path fill="#403d39" d="M 336.46875 202.183594 L 260.765625 202.183594 C 257.929688 202.183594 256.15625 199.117188 257.585938 196.667969 L 297.414062 128.082031 L 313.421875 100.53125 C 314.851562 98.085938 313.074219 95.023438 310.261719 95.015625 L 283.832031 94.953125 L 278.367188 94.941406 L 278.34375 94.953125 L 163.324219 94.953125 L 182.453125 128.082031 L 252.730469 128.082031 C 255.566406 128.082031 257.339844 131.148438 255.914062 133.597656 L 220.46875 194.597656 L 243.820312 235.3125 L 347.949219 235.3125 C 349.253906 235.3125 350.457031 234.617188 351.109375 233.488281 L 366.058594 207.761719 C 367.488281 205.320312 365.710938 202.253906 362.898438 202.246094 Z M 336.46875 202.183594 " fill-opacity="1" fill-rule="nonzero"></path></svg><style>@media (prefers-color-scheme: light) { :root { filter: none; } }
@media (prefers-color-scheme: dark) { :root { filter: invert(100%); } }
</style></svg>